<svg width="700px" height="259px"
 viewBox="0.00 0.00 509.44 188.00" xmlns="http://www.w3.org/2000/svg" xmlns:xlink="http://www.w3.org/1999/xlink">
<g id="graph0" class="graph" transform="scale(1.0 1.0) rotate(0.0) translate(4.0 184.0)">
<title>network</title>
<polygon fill="white" stroke="transparent" points="-4,4 -4,-184 505.44,-184 505.44,4 -4,4"/>
<!-- ok@gmail.com -->
<g id="node1" class="node">
<title>ok@gmail.com</title>
<ellipse fill="none" stroke="black" cx="173.14" cy="-162" rx="65.79" ry="18"/>
<text text-anchor="middle" x="173.14" y="-158.3" font-family="Times New Roman,serif" font-size="14.00">ok@gmail.com</text>
</g>
<!-- ctrl@gmail.com -->
<g id="node2" class="node">
<title>ctrl@gmail.com</title>
<ellipse fill="none" stroke="black" cx="256.14" cy="-90" rx="68.49" ry="18"/>
<text text-anchor="middle" x="256.14" y="-86.3" font-family="Times New Roman,serif" font-size="14.00">ctrl@gmail.com</text>
</g>
<!-- ok@gmail.com&#45;&#45;ctrl@gmail.com -->
<g id="edge1" class="edge">
<title>ok@gmail.com&#45;&#45;ctrl@gmail.com</title>
<path fill="none" stroke="black" d="M192.39,-144.76C205.71,-133.54 223.36,-118.65 236.71,-107.39"/>
</g>
<!-- nesomn@gmail.com -->
<g id="node3" class="node">
<title>nesomn@gmail.com</title>
<ellipse fill="none" stroke="black" cx="85.14" cy="-90" rx="85.29" ry="18"/>
<text text-anchor="middle" x="85.14" y="-86.3" font-family="Times New Roman,serif" font-size="14.00">nesomn@gmail.com</text>
</g>
<!-- ok@gmail.com&#45;&#45;nesomn@gmail.com -->
<g id="edge2" class="edge">
<title>ok@gmail.com&#45;&#45;nesomn@gmail.com</title>
<path fill="none" stroke="black" d="M152.73,-144.76C138.72,-133.62 120.17,-118.87 106.05,-107.63"/>
</g>
<!-- veioza@gmail.com -->
<g id="node4" class="node">
<title>veioza@gmail.com</title>
<ellipse fill="none" stroke="black" cx="85.14" cy="-18" rx="79.09" ry="18"/>
<text text-anchor="middle" x="85.14" y="-14.3" font-family="Times New Roman,serif" font-size="14.00">veioza@gmail.com</text>
</g>
<!-- nesomn@gmail.com&#45;&#45;veioza@gmail.com -->
<g id="edge3" class="edge">
<title>nesomn@gmail.com&#45;&#45;veioza@gmail.com</title>
<path fill="none" stroke="black" d="M85.14,-71.7C85.14,-60.85 85.14,-46.92 85.14,-36.1"/>
</g>
<!-- somn@gmail.com -->
<g id="node5" class="node">
<title>somn@gmail.com</title>
<ellipse fill="none" stroke="black" cx="338.14" cy="-162" rx="76.89" ry="18"/>
<text text-anchor="middle" x="338.14" y="-158.3" font-family="Times New Roman,serif" font-size="14.00">somn@gmail.com</text>
</g>
<!-- somn@gmail.com&#45;&#45;ctrl@gmail.com -->
<g id="edge4" class="edge">
<title>somn@gmail.com&#45;&#45;ctrl@gmail.com</title>
<path fill="none" stroke="black" d="M318.71,-144.41C305.64,-133.25 288.48,-118.6 275.44,-107.47"/>
</g>
<!-- phone@gmail.com -->
<g id="node6" class="node">
<title>phone@gmail.com</title>
<ellipse fill="none" stroke="black" cx="422.14" cy="-90" rx="79.09" ry="18"/>
<text text-anchor="middle" x="422.14" y="-86.3" font-family="Times New Roman,serif" font-size="14.00">phone@gmail.com</text>
</g>
<!-- somn@gmail.com&#45;&#45;phone@gmail.com -->
<g id="edge5" class="edge">
<title>somn@gmail.com&#45;&#45;phone@gmail.com</title>
<path fill="none" stroke="black" d="M358.05,-144.41C371.44,-133.25 389.02,-118.6 402.38,-107.47"/>
</g>
</g>
</svg>
