<svg width="700px" height="196px"
 viewBox="0.00 0.00 670.29 188.00" xmlns="http://www.w3.org/2000/svg" xmlns:xlink="http://www.w3.org/1999/xlink">
<g id="graph0" class="graph" transform="scale(1.0 1.0) rotate(0.0) translate(4.0 184.0)">
<title>network</title>
<polygon fill="white" stroke="transparent" points="-4,4 -4,-184 666.29,-184 666.29,4 -4,4"/>
<!-- bianca@gmai.com -->
<g id="node1" class="node">
<title>bianca@gmai.com</title>
<ellipse fill="none" stroke="black" cx="77.99" cy="-162" rx="77.99" ry="18"/>
<text text-anchor="middle" x="77.99" y="-158.3" font-family="Times New Roman,serif" font-size="14.00">bianca@gmai.com</text>
</g>
<!-- alt@gmail.com -->
<g id="node2" class="node">
<title>alt@gmail.com</title>
<ellipse fill="none" stroke="black" cx="77.99" cy="-90" rx="64.99" ry="18"/>
<text text-anchor="middle" x="77.99" y="-86.3" font-family="Times New Roman,serif" font-size="14.00">alt@gmail.com</text>
</g>
<!-- bianca@gmai.com&#45;&#45;alt@gmail.com -->
<g id="edge1" class="edge">
<title>bianca@gmai.com&#45;&#45;alt@gmail.com</title>
<path fill="none" stroke="black" d="M77.99,-143.7C77.99,-132.85 77.99,-118.92 77.99,-108.1"/>
</g>
<!-- ok@gmail.com -->
<g id="node3" class="node">
<title>ok@gmail.com</title>
<ellipse fill="none" stroke="black" cx="250.99" cy="-162" rx="65.79" ry="18"/>
<text text-anchor="middle" x="250.99" y="-158.3" font-family="Times New Roman,serif" font-size="14.00">ok@gmail.com</text>
</g>
<!-- ctrl@gmail.com -->
<g id="node4" class="node">
<title>ctrl@gmail.com</title>
<ellipse fill="none" stroke="black" cx="416.99" cy="-90" rx="68.49" ry="18"/>
<text text-anchor="middle" x="416.99" y="-86.3" font-family="Times New Roman,serif" font-size="14.00">ctrl@gmail.com</text>
</g>
<!-- ok@gmail.com&#45;&#45;ctrl@gmail.com -->
<g id="edge2" class="edge">
<title>ok@gmail.com&#45;&#45;ctrl@gmail.com</title>
<path fill="none" stroke="black" d="M285.39,-146.5C313.78,-134.52 353.9,-117.61 382.36,-105.61"/>
</g>
<!-- nesomn@gmail.com -->
<g id="node5" class="node">
<title>nesomn@gmail.com</title>
<ellipse fill="none" stroke="black" cx="245.99" cy="-90" rx="85.29" ry="18"/>
<text text-anchor="middle" x="245.99" y="-86.3" font-family="Times New Roman,serif" font-size="14.00">nesomn@gmail.com</text>
</g>
<!-- ok@gmail.com&#45;&#45;nesomn@gmail.com -->
<g id="edge3" class="edge">
<title>ok@gmail.com&#45;&#45;nesomn@gmail.com</title>
<path fill="none" stroke="black" d="M249.76,-143.7C248.98,-132.85 247.99,-118.92 247.21,-108.1"/>
</g>
<!-- veioza@gmail.com -->
<g id="node6" class="node">
<title>veioza@gmail.com</title>
<ellipse fill="none" stroke="black" cx="245.99" cy="-18" rx="79.09" ry="18"/>
<text text-anchor="middle" x="245.99" y="-14.3" font-family="Times New Roman,serif" font-size="14.00">veioza@gmail.com</text>
</g>
<!-- nesomn@gmail.com&#45;&#45;veioza@gmail.com -->
<g id="edge4" class="edge">
<title>nesomn@gmail.com&#45;&#45;veioza@gmail.com</title>
<path fill="none" stroke="black" d="M245.99,-71.7C245.99,-60.85 245.99,-46.92 245.99,-36.1"/>
</g>
<!-- somn@gmail.com -->
<g id="node7" class="node">
<title>somn@gmail.com</title>
<ellipse fill="none" stroke="black" cx="499.99" cy="-162" rx="76.89" ry="18"/>
<text text-anchor="middle" x="499.99" y="-158.3" font-family="Times New Roman,serif" font-size="14.00">somn@gmail.com</text>
</g>
<!-- somn@gmail.com&#45;&#45;ctrl@gmail.com -->
<g id="edge5" class="edge">
<title>somn@gmail.com&#45;&#45;ctrl@gmail.com</title>
<path fill="none" stroke="black" d="M480.32,-144.41C467.09,-133.25 449.72,-118.6 436.52,-107.47"/>
</g>
<!-- phone@gmail.com -->
<g id="node8" class="node">
<title>phone@gmail.com</title>
<ellipse fill="none" stroke="black" cx="582.99" cy="-90" rx="79.09" ry="18"/>
<text text-anchor="middle" x="582.99" y="-86.3" font-family="Times New Roman,serif" font-size="14.00">phone@gmail.com</text>
</g>
<!-- somn@gmail.com&#45;&#45;phone@gmail.com -->
<g id="edge6" class="edge">
<title>somn@gmail.com&#45;&#45;phone@gmail.com</title>
<path fill="none" stroke="black" d="M519.66,-144.41C532.89,-133.25 550.26,-118.6 563.46,-107.47"/>
</g>
</g>
</svg>
