<svg width="700px" height="81px"
 viewBox="0.00 0.00 1000.79 116.00" xmlns="http://www.w3.org/2000/svg" xmlns:xlink="http://www.w3.org/1999/xlink">
<g id="graph0" class="graph" transform="scale(1.0 1.0) rotate(0.0) translate(4.0 112.0)">
<title>network</title>
<polygon fill="white" stroke="transparent" points="-4,4 -4,-112 996.79,-112 996.79,4 -4,4"/>
<!-- fier@yahoo.com -->
<g id="node1" class="node">
<title>fier@yahoo.com</title>
<ellipse fill="none" stroke="black" cx="71.49" cy="-18" rx="71.49" ry="18"/>
<text text-anchor="middle" x="71.49" y="-14.3" font-family="Times New Roman,serif" font-size="14.00">fier@yahoo.com</text>
</g>
<!-- nesomn@gmail.com -->
<g id="node2" class="node">
<title>nesomn@gmail.com</title>
<ellipse fill="none" stroke="black" cx="246.49" cy="-18" rx="85.29" ry="18"/>
<text text-anchor="middle" x="246.49" y="-14.3" font-family="Times New Roman,serif" font-size="14.00">nesomn@gmail.com</text>
</g>
<!-- seara@gmail.com -->
<g id="node3" class="node">
<title>seara@gmail.com</title>
<ellipse fill="none" stroke="black" cx="419.49" cy="-90" rx="75.29" ry="18"/>
<text text-anchor="middle" x="419.49" y="-86.3" font-family="Times New Roman,serif" font-size="14.00">seara@gmail.com</text>
</g>
<!-- papa@gmail.com -->
<g id="node4" class="node">
<title>papa@gmail.com</title>
<ellipse fill="none" stroke="black" cx="588.49" cy="-18" rx="74.19" ry="18"/>
<text text-anchor="middle" x="588.49" y="-14.3" font-family="Times New Roman,serif" font-size="14.00">papa@gmail.com</text>
</g>
<!-- ctrl@gmail.com -->
<g id="node5" class="node">
<title>ctrl@gmail.com</title>
<ellipse fill="none" stroke="black" cx="750.49" cy="-90" rx="68.49" ry="18"/>
<text text-anchor="middle" x="750.49" y="-86.3" font-family="Times New Roman,serif" font-size="14.00">ctrl@gmail.com</text>
</g>
<!-- ok@gmail.com -->
<g id="node6" class="node">
<title>ok@gmail.com</title>
<ellipse fill="none" stroke="black" cx="71.49" cy="-90" rx="65.79" ry="18"/>
<text text-anchor="middle" x="71.49" y="-86.3" font-family="Times New Roman,serif" font-size="14.00">ok@gmail.com</text>
</g>
<!-- ok@gmail.com&#45;&#45;fier@yahoo.com -->
<g id="edge1" class="edge">
<title>ok@gmail.com&#45;&#45;fier@yahoo.com</title>
<path fill="none" stroke="black" d="M71.49,-71.7C71.49,-60.85 71.49,-46.92 71.49,-36.1"/>
</g>
<!-- somn@gmail.com -->
<g id="node7" class="node">
<title>somn@gmail.com</title>
<ellipse fill="none" stroke="black" cx="913.49" cy="-90" rx="76.89" ry="18"/>
<text text-anchor="middle" x="913.49" y="-86.3" font-family="Times New Roman,serif" font-size="14.00">somn@gmail.com</text>
</g>
<!-- phone@gmail.com -->
<g id="node8" class="node">
<title>phone@gmail.com</title>
<ellipse fill="none" stroke="black" cx="913.49" cy="-18" rx="79.09" ry="18"/>
<text text-anchor="middle" x="913.49" y="-14.3" font-family="Times New Roman,serif" font-size="14.00">phone@gmail.com</text>
</g>
<!-- somn@gmail.com&#45;&#45;phone@gmail.com -->
<g id="edge2" class="edge">
<title>somn@gmail.com&#45;&#45;phone@gmail.com</title>
<path fill="none" stroke="black" d="M913.49,-71.7C913.49,-60.85 913.49,-46.92 913.49,-36.1"/>
</g>
<!-- veioza@gmail.com -->
<g id="node9" class="node">
<title>veioza@gmail.com</title>
<ellipse fill="none" stroke="black" cx="246.49" cy="-90" rx="79.09" ry="18"/>
<text text-anchor="middle" x="246.49" y="-86.3" font-family="Times New Roman,serif" font-size="14.00">veioza@gmail.com</text>
</g>
<!-- veioza@gmail.com&#45;&#45;nesomn@gmail.com -->
<g id="edge3" class="edge">
<title>veioza@gmail.com&#45;&#45;nesomn@gmail.com</title>
<path fill="none" stroke="black" d="M246.49,-71.7C246.49,-60.85 246.49,-46.92 246.49,-36.1"/>
</g>
<!-- cafea@gmail.com -->
<g id="node10" class="node">
<title>cafea@gmail.com</title>
<ellipse fill="none" stroke="black" cx="588.49" cy="-90" rx="75.29" ry="18"/>
<text text-anchor="middle" x="588.49" y="-86.3" font-family="Times New Roman,serif" font-size="14.00">cafea@gmail.com</text>
</g>
<!-- cafea@gmail.com&#45;&#45;papa@gmail.com -->
<g id="edge4" class="edge">
<title>cafea@gmail.com&#45;&#45;papa@gmail.com</title>
<path fill="none" stroke="black" d="M588.49,-71.7C588.49,-60.85 588.49,-46.92 588.49,-36.1"/>
</g>
</g>
</svg>
