<svg width="700px" height="499px"
 viewBox="0.00 0.00 668.00 476.00" xmlns="http://www.w3.org/2000/svg" xmlns:xlink="http://www.w3.org/1999/xlink">
<g id="graph0" class="graph" transform="scale(1.0 1.0) rotate(0.0) translate(4.0 472.0)">
<title>G</title>
<polygon fill="white" stroke="transparent" points="-4,4 -4,-472 664,-472 664,4 -4,4"/>
<!-- 1 -->
<g id="node1" class="node">
<title>1</title>
<ellipse fill="none" stroke="black" cx="296" cy="-450" rx="71.49" ry="18"/>
<text text-anchor="middle" x="296" y="-446.3" font-family="Times New Roman,serif" font-size="14.00">mini@gmail.com</text>
</g>
<!-- 2 -->
<g id="node2" class="node">
<title>2</title>
<ellipse fill="none" stroke="black" cx="433" cy="-378" rx="65.79" ry="18"/>
<text text-anchor="middle" x="433" y="-374.3" font-family="Times New Roman,serif" font-size="14.00">ok@gmail.com</text>
</g>
<!-- 1&#45;&gt;2 -->
<g id="edge1" class="edge">
<title>1&#45;&gt;2</title>
<path fill="none" stroke="black" d="M321.33,-433.12C340.52,-422.69 367.2,-409.01 389.72,-398.01"/>
<polygon fill="black" stroke="black" points="391.29,-401.14 398.76,-393.63 388.24,-394.84 391.29,-401.14"/>
</g>
<!-- 3 -->
<g id="node3" class="node">
<title>3</title>
<ellipse fill="none" stroke="black" cx="247" cy="-18" rx="73.39" ry="18"/>
<text text-anchor="middle" x="247" y="-14.3" font-family="Times New Roman,serif" font-size="14.00">gigel@gmail.com</text>
</g>
<!-- 1&#45;&gt;3 -->
<g id="edge2" class="edge">
<title>1&#45;&gt;3</title>
<path fill="none" stroke="black" d="M227.07,-445.12C139.53,-436.12 0,-406.23 0,-307 0,-307 0,-307 0,-161 0,-80.7 101.16,-44.74 174.07,-29.45"/>
<polygon fill="black" stroke="black" points="175.04,-32.82 184.16,-27.42 173.66,-25.96 175.04,-32.82"/>
</g>
<!-- 4 -->
<g id="node4" class="node">
<title>4</title>
<ellipse fill="none" stroke="black" cx="187" cy="-90" rx="84.49" ry="18"/>
<text text-anchor="middle" x="187" y="-86.3" font-family="Times New Roman,serif" font-size="14.00">albinuta@gmail.com</text>
</g>
<!-- 1&#45;&gt;4 -->
<g id="edge3" class="edge">
<title>1&#45;&gt;4</title>
<path fill="none" stroke="black" d="M258.16,-434.73C217.59,-415.63 155.95,-377.82 130,-324 96.19,-253.87 138.2,-160.68 166.3,-116.42"/>
<polygon fill="black" stroke="black" points="169.27,-118.26 171.88,-107.99 163.44,-114.4 169.27,-118.26"/>
</g>
<!-- 5 -->
<g id="node5" class="node">
<title>5</title>
<ellipse fill="none" stroke="black" cx="483" cy="-162" rx="81.79" ry="18"/>
<text text-anchor="middle" x="483" y="-158.3" font-family="Times New Roman,serif" font-size="14.00">banana@gmail.com</text>
</g>
<!-- 1&#45;&gt;5 -->
<g id="edge4" class="edge">
<title>1&#45;&gt;5</title>
<path fill="none" stroke="black" d="M357.95,-440.92C411.02,-432.91 481.4,-418.54 499,-396 546.47,-335.2 509.92,-236.67 491.41,-189.63"/>
<polygon fill="black" stroke="black" points="494.6,-188.16 487.67,-180.15 488.09,-190.73 494.6,-188.16"/>
</g>
<!-- 6 -->
<g id="node6" class="node">
<title>6</title>
<ellipse fill="none" stroke="black" cx="302" cy="-234" rx="87.99" ry="18"/>
<text text-anchor="middle" x="302" y="-230.3" font-family="Times New Roman,serif" font-size="14.00">nicoleta@yahoo.com</text>
</g>
<!-- 1&#45;&gt;6 -->
<g id="edge5" class="edge">
<title>1&#45;&gt;6</title>
<path fill="none" stroke="black" d="M292.6,-431.85C290.11,-394.83 292.29,-307.18 296.54,-262.39"/>
<polygon fill="black" stroke="black" points="300.04,-262.55 297.63,-252.23 293.08,-261.8 300.04,-262.55"/>
</g>
<!-- 7 -->
<g id="node7" class="node">
<title>7</title>
<ellipse fill="none" stroke="black" cx="218" cy="-306" rx="70.39" ry="18"/>
<text text-anchor="middle" x="218" y="-302.3" font-family="Times New Roman,serif" font-size="14.00">jojo@gmail.com</text>
</g>
<!-- 1&#45;&gt;7 -->
<g id="edge6" class="edge">
<title>1&#45;&gt;7</title>
<path fill="none" stroke="black" d="M282.19,-432.15C266.16,-407.73 240.91,-362.26 227.1,-333.38"/>
<polygon fill="black" stroke="black" points="230.26,-331.87 222.89,-324.27 223.91,-334.81 230.26,-331.87"/>
</g>
<!-- 2&#45;&gt;1 -->
<g id="edge7" class="edge">
<title>2&#45;&gt;1</title>
<path fill="none" stroke="black" d="M407.83,-394.8C388.75,-405.16 362.21,-418.78 339.72,-429.78"/>
<polygon fill="black" stroke="black" points="338.16,-426.64 330.69,-434.15 341.22,-432.94 338.16,-426.64"/>
</g>
<!-- 2&#45;&gt;3 -->
<g id="edge8" class="edge">
<title>2&#45;&gt;3</title>
<path fill="none" stroke="black" d="M482.55,-366.05C544.45,-349.76 642,-312.35 642,-235 642,-235 642,-235 642,-161 642,-92.26 431.2,-48.74 317.54,-29.86"/>
<polygon fill="black" stroke="black" points="317.95,-26.39 307.52,-28.22 316.82,-33.29 317.95,-26.39"/>
</g>
<!-- 2&#45;&gt;4 -->
<g id="edge9" class="edge">
<title>2&#45;&gt;4</title>
<path fill="none" stroke="black" d="M428.43,-359.7C425.1,-328.12 421.84,-260.31 390,-216 351.86,-162.93 283.61,-128.65 236.77,-109.65"/>
<polygon fill="black" stroke="black" points="238,-106.38 227.41,-105.95 235.42,-112.88 238,-106.38"/>
</g>
<!-- 2&#45;&gt;5 -->
<g id="edge10" class="edge">
<title>2&#45;&gt;5</title>
<path fill="none" stroke="black" d="M435.63,-359.95C440.26,-349.85 447.01,-336.6 451,-324 465.39,-278.53 470.8,-222.98 475.41,-190.44"/>
<polygon fill="black" stroke="black" points="478.9,-190.75 476.95,-180.33 471.98,-189.69 478.9,-190.75"/>
</g>
<!-- 2&#45;&gt;6 -->
<g id="edge11" class="edge">
<title>2&#45;&gt;6</title>
<path fill="none" stroke="black" d="M413.48,-360.71C388.01,-336.05 344.37,-289.03 319.78,-260.01"/>
<polygon fill="black" stroke="black" points="322.18,-257.42 313.09,-251.98 316.81,-261.9 322.18,-257.42"/>
</g>
<!-- 2&#45;&gt;7 -->
<g id="edge12" class="edge">
<title>2&#45;&gt;7</title>
<path fill="none" stroke="black" d="M389.25,-364.49C353.31,-353.33 302.61,-336.89 265.66,-324.45"/>
<polygon fill="black" stroke="black" points="266.7,-321.1 256.1,-321.21 264.45,-327.73 266.7,-321.1"/>
</g>
<!-- 3&#45;&gt;1 -->
<g id="edge13" class="edge">
<title>3&#45;&gt;1</title>
<path fill="none" stroke="black" d="M188.72,-29.08C120.8,-44.17 18,-80.05 18,-161 18,-307 18,-307 18,-307 18,-398.26 136.01,-430.87 218.31,-442.52"/>
<polygon fill="black" stroke="black" points="218.03,-446.01 228.41,-443.87 218.96,-439.08 218.03,-446.01"/>
</g>
<!-- 3&#45;&gt;2 -->
<g id="edge14" class="edge">
<title>3&#45;&gt;2</title>
<path fill="none" stroke="black" d="M310.8,-27.13C426.79,-44.29 660,-88.7 660,-161 660,-235 660,-235 660,-235 660,-311.47 564.65,-348.9 497.46,-365.49"/>
<polygon fill="black" stroke="black" points="496.28,-362.17 487.36,-367.88 497.89,-368.98 496.28,-362.17"/>
</g>
<!-- 3&#45;&gt;4 -->
<g id="edge15" class="edge">
<title>3&#45;&gt;4</title>
<path fill="none" stroke="black" d="M238.35,-35.96C231.78,-44.69 222.71,-55.49 213.96,-65.06"/>
<polygon fill="black" stroke="black" points="211.35,-62.73 207.06,-72.41 216.46,-67.52 211.35,-62.73"/>
</g>
<!-- 3&#45;&gt;5 -->
<g id="edge16" class="edge">
<title>3&#45;&gt;5</title>
<path fill="none" stroke="black" d="M277.34,-34.6C322.28,-59.9 405.73,-109.99 451.39,-138.94"/>
<polygon fill="black" stroke="black" points="449.68,-142 459.99,-144.43 453.45,-136.1 449.68,-142"/>
</g>
<!-- 3&#45;&gt;6 -->
<g id="edge17" class="edge">
<title>3&#45;&gt;6</title>
<path fill="none" stroke="black" d="M267.84,-35.71C276.04,-45.7 284.29,-58.95 289,-72 305.26,-117.06 309.63,-173.18 308.1,-205.86"/>
<polygon fill="black" stroke="black" points="304.6,-205.77 307.37,-215.99 311.58,-206.27 304.6,-205.77"/>
</g>
<!-- 3&#45;&gt;7 -->
<g id="edge18" class="edge">
<title>3&#45;&gt;7</title>
<path fill="none" stroke="black" d="M181.42,-26.19C152.55,-33.12 121.18,-46.47 103,-72 52.15,-143.43 146.59,-238.25 193.78,-281.59"/>
<polygon fill="black" stroke="black" points="191.44,-284.19 201.19,-288.34 196.15,-279.02 191.44,-284.19"/>
</g>
<!-- 4&#45;&gt;1 -->
<g id="edge19" class="edge">
<title>4&#45;&gt;1</title>
<path fill="none" stroke="black" d="M181.1,-107.99C162.35,-147.73 111.86,-249.03 148,-324 171.36,-372.46 223.66,-407.94 259.51,-428.47"/>
<polygon fill="black" stroke="black" points="257.81,-431.52 268.25,-433.36 261.24,-425.42 257.81,-431.52"/>
</g>
<!-- 4&#45;&gt;2 -->
<g id="edge20" class="edge">
<title>4&#45;&gt;2</title>
<path fill="none" stroke="black" d="M237,-104.65C288.37,-122.3 366.24,-157.88 408,-216 436.73,-255.98 442.19,-315.1 439.94,-349.47"/>
<polygon fill="black" stroke="black" points="436.43,-349.41 438.96,-359.7 443.4,-350.08 436.43,-349.41"/>
</g>
<!-- 4&#45;&gt;3 -->
<g id="edge21" class="edge">
<title>4&#45;&gt;3</title>
<path fill="none" stroke="black" d="M195.65,-72.05C202.17,-63.37 211.17,-52.64 219.88,-43.11"/>
<polygon fill="black" stroke="black" points="222.46,-45.48 226.75,-35.79 217.35,-40.69 222.46,-45.48"/>
</g>
<!-- 4&#45;&gt;5 -->
<g id="edge22" class="edge">
<title>4&#45;&gt;5</title>
<path fill="none" stroke="black" d="M244.36,-103.31C295.64,-115.02 370.42,-132.67 422.6,-145.36"/>
<polygon fill="black" stroke="black" points="421.86,-148.78 432.4,-147.75 423.51,-141.98 421.86,-148.78"/>
</g>
<!-- 4&#45;&gt;6 -->
<g id="edge23" class="edge">
<title>4&#45;&gt;6</title>
<path fill="none" stroke="black" d="M205.11,-107.75C227.72,-132.4 265.43,-178.63 286.68,-207.51"/>
<polygon fill="black" stroke="black" points="284.02,-209.81 292.71,-215.87 289.7,-205.71 284.02,-209.81"/>
</g>
<!-- 4&#45;&gt;7 -->
<g id="edge24" class="edge">
<title>4&#45;&gt;7</title>
<path fill="none" stroke="black" d="M193.61,-108.02C199.38,-137.51 204.75,-199.94 214,-252 215.52,-260.53 217.61,-269.72 219.26,-278.02"/>
<polygon fill="black" stroke="black" points="215.83,-278.71 221.04,-287.93 222.72,-277.47 215.83,-278.71"/>
</g>
<!-- 5&#45;&gt;1 -->
<g id="edge25" class="edge">
<title>5&#45;&gt;1</title>
<path fill="none" stroke="black" d="M496.44,-179.84C521.87,-221.47 568.08,-330.58 517,-396 499.3,-418.67 428.18,-433.08 371.27,-441.06"/>
<polygon fill="black" stroke="black" points="370.62,-437.62 361.18,-442.43 371.56,-444.55 370.62,-437.62"/>
</g>
<!-- 5&#45;&gt;2 -->
<g id="edge26" class="edge">
<title>5&#45;&gt;2</title>
<path fill="none" stroke="black" d="M487.82,-180.33C489.91,-210.29 485.02,-273.39 469,-324 466.03,-333.4 461.51,-343.16 456.56,-351.7"/>
<polygon fill="black" stroke="black" points="453.43,-350.1 451.06,-360.42 459.36,-353.83 453.43,-350.1"/>
</g>
<!-- 5&#45;&gt;3 -->
<g id="edge27" class="edge">
<title>5&#45;&gt;3</title>
<path fill="none" stroke="black" d="M452.41,-145.26C407.23,-119.81 323.51,-69.55 278.07,-40.71"/>
<polygon fill="black" stroke="black" points="279.82,-37.68 269.51,-35.25 276.05,-43.58 279.82,-37.68"/>
</g>
<!-- 5&#45;&gt;4 -->
<g id="edge28" class="edge">
<title>5&#45;&gt;4</title>
<path fill="none" stroke="black" d="M426.52,-148.89C375.44,-137.23 300.5,-119.55 248.05,-106.8"/>
<polygon fill="black" stroke="black" points="248.75,-103.37 238.2,-104.4 247.09,-110.17 248.75,-103.37"/>
</g>
<!-- 5&#45;&gt;6 -->
<g id="edge29" class="edge">
<title>5&#45;&gt;6</title>
<path fill="none" stroke="black" d="M448.93,-178.38C422.48,-189.11 385.45,-203.47 355.14,-214.77"/>
<polygon fill="black" stroke="black" points="353.72,-211.57 345.56,-218.33 356.15,-218.13 353.72,-211.57"/>
</g>
<!-- 5&#45;&gt;7 -->
<g id="edge30" class="edge">
<title>5&#45;&gt;7</title>
<path fill="none" stroke="black" d="M477.72,-180C465.74,-200.08 438.8,-233.13 408,-252 372.12,-273.98 326.65,-287.25 289.12,-295.01"/>
<polygon fill="black" stroke="black" points="288.39,-291.59 279.26,-296.96 289.75,-298.45 288.39,-291.59"/>
</g>
<!-- 6&#45;&gt;1 -->
<g id="edge31" class="edge">
<title>6&#45;&gt;1</title>
<path fill="none" stroke="black" d="M305.4,-252.23C307.89,-289.32 305.7,-376.98 301.45,-421.71"/>
<polygon fill="black" stroke="black" points="297.95,-421.53 300.36,-431.85 304.91,-422.28 297.95,-421.53"/>
</g>
<!-- 6&#45;&gt;2 -->
<g id="edge32" class="edge">
<title>6&#45;&gt;2</title>
<path fill="none" stroke="black" d="M322.07,-251.82C347.68,-276.69 391,-323.39 415.38,-352.19"/>
<polygon fill="black" stroke="black" points="412.93,-354.71 422.01,-360.15 418.31,-350.23 412.93,-354.71"/>
</g>
<!-- 6&#45;&gt;3 -->
<g id="edge33" class="edge">
<title>6&#45;&gt;3</title>
<path fill="none" stroke="black" d="M296.61,-215.99C292.47,-186.01 289.1,-122.15 271,-72 267.63,-62.67 262.45,-53.23 257.6,-44.96"/>
<polygon fill="black" stroke="black" points="260.5,-42.98 252.37,-36.18 254.48,-46.57 260.5,-42.98"/>
</g>
<!-- 6&#45;&gt;4 -->
<g id="edge34" class="edge">
<title>6&#45;&gt;4</title>
<path fill="none" stroke="black" d="M283.8,-216.15C261.21,-191.52 223.66,-145.47 202.42,-116.63"/>
<polygon fill="black" stroke="black" points="205.08,-114.33 196.39,-108.27 199.4,-118.42 205.08,-114.33"/>
</g>
<!-- 6&#45;&gt;5 -->
<g id="edge35" class="edge">
<title>6&#45;&gt;5</title>
<path fill="none" stroke="black" d="M336.88,-217.29C363.46,-206.52 400.37,-192.22 430.49,-180.99"/>
<polygon fill="black" stroke="black" points="431.85,-184.22 440.01,-177.46 429.42,-177.66 431.85,-184.22"/>
</g>
<!-- 6&#45;&gt;7 -->
<g id="edge36" class="edge">
<title>6&#45;&gt;7</title>
<path fill="none" stroke="black" d="M287.71,-251.8C277.55,-261.09 263.71,-272.76 250.98,-282.8"/>
<polygon fill="black" stroke="black" points="248.58,-280.22 242.82,-289.12 252.87,-285.76 248.58,-280.22"/>
</g>
<!-- 7&#45;&gt;1 -->
<g id="edge37" class="edge">
<title>7&#45;&gt;1</title>
<path fill="none" stroke="black" d="M231.74,-323.75C247.8,-348.18 273.15,-393.84 286.96,-422.76"/>
<polygon fill="black" stroke="black" points="283.8,-424.26 291.18,-431.87 290.16,-421.33 283.8,-424.26"/>
</g>
<!-- 7&#45;&gt;2 -->
<g id="edge38" class="edge">
<title>7&#45;&gt;2</title>
<path fill="none" stroke="black" d="M263.03,-319.91C298.97,-331.08 349.07,-347.33 385.61,-359.64"/>
<polygon fill="black" stroke="black" points="384.94,-363.11 395.53,-363 387.18,-356.48 384.94,-363.11"/>
</g>
<!-- 7&#45;&gt;3 -->
<g id="edge39" class="edge">
<title>7&#45;&gt;3</title>
<path fill="none" stroke="black" d="M192.81,-288.92C140.63,-249.89 31.05,-147.78 85,-72 103.61,-45.86 136.04,-32.49 167.07,-25.71"/>
<polygon fill="black" stroke="black" points="167.94,-29.1 177.07,-23.73 166.58,-22.23 167.94,-29.1"/>
</g>
<!-- 7&#45;&gt;4 -->
<g id="edge40" class="edge">
<title>7&#45;&gt;4</title>
<path fill="none" stroke="black" d="M205.4,-287.93C201.47,-277.6 198.16,-264.13 196,-252 187.72,-205.43 182.55,-150.57 182.53,-118.4"/>
<polygon fill="black" stroke="black" points="186.04,-118.09 182.74,-108.02 179.04,-117.95 186.04,-118.09"/>
</g>
<!-- 7&#45;&gt;5 -->
<g id="edge41" class="edge">
<title>7&#45;&gt;5</title>
<path fill="none" stroke="black" d="M273.82,-294.92C309.01,-287.14 354.26,-273.89 390,-252 417.23,-235.32 441.44,-207.55 458.61,-187.46"/>
<polygon fill="black" stroke="black" points="461.46,-189.52 465.3,-179.64 456.14,-184.97 461.46,-189.52"/>
</g>
<!-- 7&#45;&gt;6 -->
<g id="edge42" class="edge">
<title>7&#45;&gt;6</title>
<path fill="none" stroke="black" d="M232.46,-288.05C242.48,-278.89 256.04,-267.46 268.58,-257.56"/>
<polygon fill="black" stroke="black" points="270.87,-260.21 276.62,-251.31 266.58,-254.68 270.87,-260.21"/>
</g>
</g>
</svg>
