<svg width="700px" height="268px"
 viewBox="0.00 0.00 678.69 260.00" xmlns="http://www.w3.org/2000/svg" xmlns:xlink="http://www.w3.org/1999/xlink">
<g id="graph0" class="graph" transform="scale(1.0 1.0) rotate(0.0) translate(4.0 256.0)">
<title>network</title>
<polygon fill="white" stroke="transparent" points="-4,4 -4,-256 674.69,-256 674.69,4 -4,4"/>
<!-- fier@yahoo.com -->
<g id="node1" class="node">
<title>fier@yahoo.com</title>
<ellipse fill="none" stroke="black" cx="262.14" cy="-234" rx="71.49" ry="18"/>
<text text-anchor="middle" x="262.14" y="-230.3" font-family="Times New Roman,serif" font-size="14.00">fier@yahoo.com</text>
</g>
<!-- ok@gmail.com -->
<g id="node2" class="node">
<title>ok@gmail.com</title>
<ellipse fill="none" stroke="black" cx="262.14" cy="-162" rx="65.79" ry="18"/>
<text text-anchor="middle" x="262.14" y="-158.3" font-family="Times New Roman,serif" font-size="14.00">ok@gmail.com</text>
</g>
<!-- fier@yahoo.com&#45;&#45;ok@gmail.com -->
<g id="edge1" class="edge">
<title>fier@yahoo.com&#45;&#45;ok@gmail.com</title>
<path fill="none" stroke="black" d="M262.14,-215.7C262.14,-204.85 262.14,-190.92 262.14,-180.1"/>
</g>
<!-- nesomn@gmail.com -->
<g id="node3" class="node">
<title>nesomn@gmail.com</title>
<ellipse fill="none" stroke="black" cx="85.14" cy="-90" rx="85.29" ry="18"/>
<text text-anchor="middle" x="85.14" y="-86.3" font-family="Times New Roman,serif" font-size="14.00">nesomn@gmail.com</text>
</g>
<!-- ok@gmail.com&#45;&#45;nesomn@gmail.com -->
<g id="edge2" class="edge">
<title>ok@gmail.com&#45;&#45;nesomn@gmail.com</title>
<path fill="none" stroke="black" d="M226.32,-146.83C196.42,-135.01 153.91,-118.2 123.36,-106.11"/>
</g>
<!-- papa@gmail.com -->
<g id="node4" class="node">
<title>papa@gmail.com</title>
<ellipse fill="none" stroke="black" cx="262.14" cy="-90" rx="74.19" ry="18"/>
<text text-anchor="middle" x="262.14" y="-86.3" font-family="Times New Roman,serif" font-size="14.00">papa@gmail.com</text>
</g>
<!-- ok@gmail.com&#45;&#45;papa@gmail.com -->
<g id="edge3" class="edge">
<title>ok@gmail.com&#45;&#45;papa@gmail.com</title>
<path fill="none" stroke="black" d="M262.14,-143.7C262.14,-132.85 262.14,-118.92 262.14,-108.1"/>
</g>
<!-- ctrl@gmail.com -->
<g id="node5" class="node">
<title>ctrl@gmail.com</title>
<ellipse fill="none" stroke="black" cx="422.14" cy="-90" rx="68.49" ry="18"/>
<text text-anchor="middle" x="422.14" y="-86.3" font-family="Times New Roman,serif" font-size="14.00">ctrl@gmail.com</text>
</g>
<!-- ok@gmail.com&#45;&#45;ctrl@gmail.com -->
<g id="edge4" class="edge">
<title>ok@gmail.com&#45;&#45;ctrl@gmail.com</title>
<path fill="none" stroke="black" d="M295.68,-146.33C322.9,-134.42 361.09,-117.71 388.37,-105.78"/>
</g>
<!-- veioza@gmail.com -->
<g id="node6" class="node">
<title>veioza@gmail.com</title>
<ellipse fill="none" stroke="black" cx="85.14" cy="-18" rx="79.09" ry="18"/>
<text text-anchor="middle" x="85.14" y="-14.3" font-family="Times New Roman,serif" font-size="14.00">veioza@gmail.com</text>
</g>
<!-- nesomn@gmail.com&#45;&#45;veioza@gmail.com -->
<g id="edge5" class="edge">
<title>nesomn@gmail.com&#45;&#45;veioza@gmail.com</title>
<path fill="none" stroke="black" d="M85.14,-71.7C85.14,-60.85 85.14,-46.92 85.14,-36.1"/>
</g>
<!-- cafea@gmail.com -->
<g id="node7" class="node">
<title>cafea@gmail.com</title>
<ellipse fill="none" stroke="black" cx="262.14" cy="-18" rx="75.29" ry="18"/>
<text text-anchor="middle" x="262.14" y="-14.3" font-family="Times New Roman,serif" font-size="14.00">cafea@gmail.com</text>
</g>
<!-- papa@gmail.com&#45;&#45;cafea@gmail.com -->
<g id="edge6" class="edge">
<title>papa@gmail.com&#45;&#45;cafea@gmail.com</title>
<path fill="none" stroke="black" d="M262.14,-71.7C262.14,-60.85 262.14,-46.92 262.14,-36.1"/>
</g>
<!-- somn@gmail.com -->
<g id="node8" class="node">
<title>somn@gmail.com</title>
<ellipse fill="none" stroke="black" cx="505.14" cy="-162" rx="76.89" ry="18"/>
<text text-anchor="middle" x="505.14" y="-158.3" font-family="Times New Roman,serif" font-size="14.00">somn@gmail.com</text>
</g>
<!-- somn@gmail.com&#45;&#45;ctrl@gmail.com -->
<g id="edge8" class="edge">
<title>somn@gmail.com&#45;&#45;ctrl@gmail.com</title>
<path fill="none" stroke="black" d="M485.47,-144.41C472.24,-133.25 454.87,-118.6 441.67,-107.47"/>
</g>
<!-- phone@gmail.com -->
<g id="node9" class="node">
<title>phone@gmail.com</title>
<ellipse fill="none" stroke="black" cx="588.14" cy="-90" rx="79.09" ry="18"/>
<text text-anchor="middle" x="588.14" y="-86.3" font-family="Times New Roman,serif" font-size="14.00">phone@gmail.com</text>
</g>
<!-- somn@gmail.com&#45;&#45;phone@gmail.com -->
<g id="edge7" class="edge">
<title>somn@gmail.com&#45;&#45;phone@gmail.com</title>
<path fill="none" stroke="black" d="M524.81,-144.41C538.04,-133.25 555.41,-118.6 568.61,-107.47"/>
</g>
<!-- foame@yahoo.com -->
<g id="node10" class="node">
<title>foame@yahoo.com</title>
<ellipse fill="none" stroke="black" cx="588.14" cy="-18" rx="82.59" ry="18"/>
<text text-anchor="middle" x="588.14" y="-14.3" font-family="Times New Roman,serif" font-size="14.00">foame@yahoo.com</text>
</g>
<!-- phone@gmail.com&#45;&#45;foame@yahoo.com -->
<g id="edge9" class="edge">
<title>phone@gmail.com&#45;&#45;foame@yahoo.com</title>
<path fill="none" stroke="black" d="M588.14,-71.7C588.14,-60.85 588.14,-46.92 588.14,-36.1"/>
</g>
</g>
</svg>
