<svg width="700px" height="95px"
 viewBox="0.00 0.00 859.19 116.00" xmlns="http://www.w3.org/2000/svg" xmlns:xlink="http://www.w3.org/1999/xlink">
<g id="graph0" class="graph" transform="scale(1.0 1.0) rotate(0.0) translate(4.0 112.0)">
<title>network</title>
<polygon fill="white" stroke="transparent" points="-4,4 -4,-112 855.19,-112 855.19,4 -4,4"/>
<!-- fier@yahoo.com -->
<g id="node1" class="node">
<title>fier@yahoo.com</title>
<ellipse fill="none" stroke="black" cx="71.49" cy="-18" rx="71.49" ry="18"/>
<text text-anchor="middle" x="71.49" y="-14.3" font-family="Times New Roman,serif" font-size="14.00">fier@yahoo.com</text>
</g>
<!-- nesomn@gmail.com -->
<g id="node2" class="node">
<title>nesomn@gmail.com</title>
<ellipse fill="none" stroke="black" cx="246.49" cy="-18" rx="85.29" ry="18"/>
<text text-anchor="middle" x="246.49" y="-14.3" font-family="Times New Roman,serif" font-size="14.00">nesomn@gmail.com</text>
</g>
<!-- phone@gmail.com -->
<g id="node3" class="node">
<title>phone@gmail.com</title>
<ellipse fill="none" stroke="black" cx="428.49" cy="-18" rx="79.09" ry="18"/>
<text text-anchor="middle" x="428.49" y="-14.3" font-family="Times New Roman,serif" font-size="14.00">phone@gmail.com</text>
</g>
<!-- papa@gmail.com -->
<g id="node4" class="node">
<title>papa@gmail.com</title>
<ellipse fill="none" stroke="black" cx="604.49" cy="-18" rx="74.19" ry="18"/>
<text text-anchor="middle" x="604.49" y="-14.3" font-family="Times New Roman,serif" font-size="14.00">papa@gmail.com</text>
</g>
<!-- ok@gmail.com -->
<g id="node5" class="node">
<title>ok@gmail.com</title>
<ellipse fill="none" stroke="black" cx="71.49" cy="-90" rx="65.79" ry="18"/>
<text text-anchor="middle" x="71.49" y="-86.3" font-family="Times New Roman,serif" font-size="14.00">ok@gmail.com</text>
</g>
<!-- ok@gmail.com&#45;&#45;fier@yahoo.com -->
<g id="edge1" class="edge">
<title>ok@gmail.com&#45;&#45;fier@yahoo.com</title>
<path fill="none" stroke="black" d="M71.49,-71.7C71.49,-60.85 71.49,-46.92 71.49,-36.1"/>
</g>
<!-- somn@gmail.com -->
<g id="node6" class="node">
<title>somn@gmail.com</title>
<ellipse fill="none" stroke="black" cx="774.49" cy="-90" rx="76.89" ry="18"/>
<text text-anchor="middle" x="774.49" y="-86.3" font-family="Times New Roman,serif" font-size="14.00">somn@gmail.com</text>
</g>
<!-- ctrl@gmail.com -->
<g id="node7" class="node">
<title>ctrl@gmail.com</title>
<ellipse fill="none" stroke="black" cx="774.49" cy="-18" rx="68.49" ry="18"/>
<text text-anchor="middle" x="774.49" y="-14.3" font-family="Times New Roman,serif" font-size="14.00">ctrl@gmail.com</text>
</g>
<!-- somn@gmail.com&#45;&#45;ctrl@gmail.com -->
<g id="edge2" class="edge">
<title>somn@gmail.com&#45;&#45;ctrl@gmail.com</title>
<path fill="none" stroke="black" d="M774.49,-71.7C774.49,-60.85 774.49,-46.92 774.49,-36.1"/>
</g>
<!-- veioza@gmail.com -->
<g id="node8" class="node">
<title>veioza@gmail.com</title>
<ellipse fill="none" stroke="black" cx="246.49" cy="-90" rx="79.09" ry="18"/>
<text text-anchor="middle" x="246.49" y="-86.3" font-family="Times New Roman,serif" font-size="14.00">veioza@gmail.com</text>
</g>
<!-- veioza@gmail.com&#45;&#45;nesomn@gmail.com -->
<g id="edge3" class="edge">
<title>veioza@gmail.com&#45;&#45;nesomn@gmail.com</title>
<path fill="none" stroke="black" d="M246.49,-71.7C246.49,-60.85 246.49,-46.92 246.49,-36.1"/>
</g>
<!-- cafea@gmail.com -->
<g id="node9" class="node">
<title>cafea@gmail.com</title>
<ellipse fill="none" stroke="black" cx="604.49" cy="-90" rx="75.29" ry="18"/>
<text text-anchor="middle" x="604.49" y="-86.3" font-family="Times New Roman,serif" font-size="14.00">cafea@gmail.com</text>
</g>
<!-- cafea@gmail.com&#45;&#45;papa@gmail.com -->
<g id="edge4" class="edge">
<title>cafea@gmail.com&#45;&#45;papa@gmail.com</title>
<path fill="none" stroke="black" d="M604.49,-71.7C604.49,-60.85 604.49,-46.92 604.49,-36.1"/>
</g>
<!-- foame@yahoo.com -->
<g id="node10" class="node">
<title>foame@yahoo.com</title>
<ellipse fill="none" stroke="black" cx="428.49" cy="-90" rx="82.59" ry="18"/>
<text text-anchor="middle" x="428.49" y="-86.3" font-family="Times New Roman,serif" font-size="14.00">foame@yahoo.com</text>
</g>
<!-- foame@yahoo.com&#45;&#45;phone@gmail.com -->
<g id="edge5" class="edge">
<title>foame@yahoo.com&#45;&#45;phone@gmail.com</title>
<path fill="none" stroke="black" d="M428.49,-71.7C428.49,-60.85 428.49,-46.92 428.49,-36.1"/>
</g>
</g>
</svg>
