<svg width="700px" height="177px"
 viewBox="0.00 0.00 744.24 188.00" xmlns="http://www.w3.org/2000/svg" xmlns:xlink="http://www.w3.org/1999/xlink">
<g id="graph0" class="graph" transform="scale(1.0 1.0) rotate(0.0) translate(4.0 184.0)">
<title>network</title>
<polygon fill="white" stroke="transparent" points="-4,4 -4,-184 740.24,-184 740.24,4 -4,4"/>
<!-- cazan@yahoo.com -->
<g id="node1" class="node">
<title>cazan@yahoo.com</title>
<ellipse fill="none" stroke="black" cx="241.54" cy="-162" rx="80.69" ry="18"/>
<text text-anchor="middle" x="241.54" y="-158.3" font-family="Times New Roman,serif" font-size="14.00">cazan@yahoo.com</text>
</g>
<!-- IQ@yahoo.com -->
<g id="node2" class="node">
<title>IQ@yahoo.com</title>
<ellipse fill="none" stroke="black" cx="69.54" cy="-90" rx="69.59" ry="18"/>
<text text-anchor="middle" x="69.54" y="-86.3" font-family="Times New Roman,serif" font-size="14.00">IQ@yahoo.com</text>
</g>
<!-- cazan@yahoo.com&#45;&#45;IQ@yahoo.com -->
<g id="edge1" class="edge">
<title>cazan@yahoo.com&#45;&#45;IQ@yahoo.com</title>
<path fill="none" stroke="black" d="M204.65,-145.98C175.23,-134.01 134.29,-117.35 105.2,-105.51"/>
</g>
<!-- YALA@yahoo.com -->
<g id="node3" class="node">
<title>YALA@yahoo.com</title>
<ellipse fill="none" stroke="black" cx="241.54" cy="-90" rx="84.49" ry="18"/>
<text text-anchor="middle" x="241.54" y="-86.3" font-family="Times New Roman,serif" font-size="14.00">YALA@yahoo.com</text>
</g>
<!-- cazan@yahoo.com&#45;&#45;YALA@yahoo.com -->
<g id="edge2" class="edge">
<title>cazan@yahoo.com&#45;&#45;YALA@yahoo.com</title>
<path fill="none" stroke="black" d="M241.54,-143.7C241.54,-132.85 241.54,-118.92 241.54,-108.1"/>
</g>
<!-- 000@yahoo.com -->
<g id="node4" class="node">
<title>000@yahoo.com</title>
<ellipse fill="none" stroke="black" cx="297.54" cy="-18" rx="73.39" ry="18"/>
<text text-anchor="middle" x="297.54" y="-14.3" font-family="Times New Roman,serif" font-size="14.00">000@yahoo.com</text>
</g>
<!-- cazan@yahoo.com&#45;&#45;000@yahoo.com -->
<g id="edge3" class="edge">
<title>cazan@yahoo.com&#45;&#45;000@yahoo.com</title>
<path fill="none" stroke="black" d="M286.3,-146.86C304.64,-138.61 323.99,-126.16 334.54,-108 348.42,-84.13 329.04,-54.06 313.5,-35.69"/>
</g>
<!-- YALA@yahoo.com&#45;&#45;000@yahoo.com -->
<g id="edge4" class="edge">
<title>YALA@yahoo.com&#45;&#45;000@yahoo.com</title>
<path fill="none" stroke="black" d="M255.1,-72.05C263.9,-61.05 275.33,-46.76 284.11,-35.79"/>
</g>
<!-- tigaie@gmail.com -->
<g id="node5" class="node">
<title>tigaie@gmail.com</title>
<ellipse fill="none" stroke="black" cx="460.54" cy="-162" rx="75.29" ry="18"/>
<text text-anchor="middle" x="460.54" y="-158.3" font-family="Times New Roman,serif" font-size="14.00">tigaie@gmail.com</text>
</g>
<!-- gogo@yahoo.com -->
<g id="node6" class="node">
<title>gogo@yahoo.com</title>
<ellipse fill="none" stroke="black" cx="460.54" cy="-90" rx="78.79" ry="18"/>
<text text-anchor="middle" x="460.54" y="-86.3" font-family="Times New Roman,serif" font-size="14.00">gogo@yahoo.com</text>
</g>
<!-- tigaie@gmail.com&#45;&#45;gogo@yahoo.com -->
<g id="edge5" class="edge">
<title>tigaie@gmail.com&#45;&#45;gogo@yahoo.com</title>
<path fill="none" stroke="black" d="M460.54,-143.7C460.54,-132.85 460.54,-118.92 460.54,-108.1"/>
</g>
<!-- haida@gmail.co -->
<g id="node7" class="node">
<title>haida@gmail.co</title>
<ellipse fill="none" stroke="black" cx="646.54" cy="-162" rx="68.79" ry="18"/>
<text text-anchor="middle" x="646.54" y="-158.3" font-family="Times New Roman,serif" font-size="14.00">haida@gmail.co</text>
</g>
<!-- incaunul@yahoo.com -->
<g id="node8" class="node">
<title>incaunul@yahoo.com</title>
<ellipse fill="none" stroke="black" cx="646.54" cy="-90" rx="89.88" ry="18"/>
<text text-anchor="middle" x="646.54" y="-86.3" font-family="Times New Roman,serif" font-size="14.00">incaunul@yahoo.com</text>
</g>
<!-- haida@gmail.co&#45;&#45;incaunul@yahoo.com -->
<g id="edge6" class="edge">
<title>haida@gmail.co&#45;&#45;incaunul@yahoo.com</title>
<path fill="none" stroke="black" d="M646.54,-143.7C646.54,-132.85 646.54,-118.92 646.54,-108.1"/>
</g>
</g>
</svg>
