<svg width="700px" height="349px"
 viewBox="0.00 0.00 1968.08 980.00" xmlns="http://www.w3.org/2000/svg" xmlns:xlink="http://www.w3.org/1999/xlink">
<g id="graph0" class="graph" transform="scale(1.0 1.0) rotate(0.0) translate(4.0 976.0)">
<title>G</title>
<polygon fill="white" stroke="transparent" points="-4,4 -4,-976 1964.08,-976 1964.08,4 -4,4"/>
<!-- 1 -->
<g id="node1" class="node">
<title>1</title>
<ellipse fill="none" stroke="black" cx="177.69" cy="-954" rx="102.88" ry="18"/>
<text text-anchor="middle" x="177.69" y="-950.3" font-family="Times New Roman,serif" font-size="14.00">noooooo@yahoo.com_1</text>
</g>
<!-- 2 -->
<g id="node2" class="node">
<title>2</title>
<ellipse fill="none" stroke="black" cx="102.69" cy="-882" rx="102.88" ry="18"/>
<text text-anchor="middle" x="102.69" y="-878.3" font-family="Times New Roman,serif" font-size="14.00">noooooo@yahoo.com_2</text>
</g>
<!-- 1&#45;&gt;2 -->
<g id="edge1" class="edge">
<title>1&#45;&gt;2</title>
<path fill="none" stroke="black" d="M159.54,-936.05C150.14,-927.28 138.51,-916.43 128.22,-906.83"/>
<polygon fill="black" stroke="black" points="130.38,-904.05 120.68,-899.79 125.6,-909.17 130.38,-904.05"/>
</g>
<!-- 21 -->
<g id="node3" class="node">
<title>21</title>
<ellipse fill="none" stroke="black" cx="106.69" cy="-810" rx="93.68" ry="18"/>
<text text-anchor="middle" x="106.69" y="-806.3" font-family="Times New Roman,serif" font-size="14.00">YALA@yahoo.com_1</text>
</g>
<!-- 2&#45;&gt;21 -->
<g id="edge2" class="edge">
<title>2&#45;&gt;21</title>
<path fill="none" stroke="black" d="M103.68,-863.7C104.12,-855.98 104.65,-846.71 105.14,-838.11"/>
<polygon fill="black" stroke="black" points="108.64,-838.29 105.71,-828.1 101.65,-837.89 108.64,-838.29"/>
</g>
<!-- 22 -->
<g id="node4" class="node">
<title>22</title>
<ellipse fill="none" stroke="black" cx="232.69" cy="-738" rx="93.68" ry="18"/>
<text text-anchor="middle" x="232.69" y="-734.3" font-family="Times New Roman,serif" font-size="14.00">YALA@yahoo.com_2</text>
</g>
<!-- 21&#45;&gt;22 -->
<g id="edge3" class="edge">
<title>21&#45;&gt;22</title>
<path fill="none" stroke="black" d="M135.91,-792.76C153.41,-783.05 175.83,-770.59 194.69,-760.11"/>
<polygon fill="black" stroke="black" points="196.58,-763.06 203.63,-755.15 193.18,-756.94 196.58,-763.06"/>
</g>
<!-- 22&#45;&gt;1 -->
<g id="edge4" class="edge">
<title>22&#45;&gt;1</title>
<path fill="none" stroke="black" d="M233.49,-756.09C234.31,-786.21 233.44,-850.26 214.69,-900 210.99,-909.82 205.06,-919.54 199.01,-927.92"/>
<polygon fill="black" stroke="black" points="196.04,-926.04 192.77,-936.11 201.61,-930.28 196.04,-926.04"/>
</g>
<!-- 27 -->
<g id="node5" class="node">
<title>27</title>
<ellipse fill="none" stroke="black" cx="241.69" cy="-234" rx="94.78" ry="18"/>
<text text-anchor="middle" x="241.69" y="-230.3" font-family="Times New Roman,serif" font-size="14.00">OLAAa@gmail.com_1</text>
</g>
<!-- 22&#45;&gt;27 -->
<g id="edge5" class="edge">
<title>22&#45;&gt;27</title>
<path fill="none" stroke="black" d="M204.5,-720.69C191.11,-711.54 176.02,-698.96 166.69,-684 145.24,-649.6 146.69,-635.54 146.69,-595 146.69,-595 146.69,-595 146.69,-377 146.69,-328.74 185.06,-284.47 213.03,-258.6"/>
<polygon fill="black" stroke="black" points="215.5,-261.09 220.61,-251.81 210.83,-255.88 215.5,-261.09"/>
</g>
<!-- 33 -->
<g id="node17" class="node">
<title>33</title>
<ellipse fill="none" stroke="black" cx="258.69" cy="-666" rx="82.59" ry="18"/>
<text text-anchor="middle" x="258.69" y="-662.3" font-family="Times New Roman,serif" font-size="14.00">000@yahoo.com_1</text>
</g>
<!-- 22&#45;&gt;33 -->
<g id="edge6" class="edge">
<title>22&#45;&gt;33</title>
<path fill="none" stroke="black" d="M239.12,-719.7C242.05,-711.81 245.58,-702.3 248.83,-693.55"/>
<polygon fill="black" stroke="black" points="252.14,-694.7 252.34,-684.1 245.57,-692.26 252.14,-694.7"/>
</g>
<!-- 28 -->
<g id="node6" class="node">
<title>28</title>
<ellipse fill="none" stroke="black" cx="118.69" cy="-162" rx="94.78" ry="18"/>
<text text-anchor="middle" x="118.69" y="-158.3" font-family="Times New Roman,serif" font-size="14.00">OLAAa@gmail.com_2</text>
</g>
<!-- 27&#45;&gt;28 -->
<g id="edge7" class="edge">
<title>27&#45;&gt;28</title>
<path fill="none" stroke="black" d="M213.16,-216.76C196.29,-207.16 174.7,-194.88 156.43,-184.48"/>
<polygon fill="black" stroke="black" points="157.91,-181.29 147.49,-179.39 154.45,-187.38 157.91,-181.29"/>
</g>
<!-- 28&#45;&gt;21 -->
<g id="edge10" class="edge">
<title>28&#45;&gt;21</title>
<path fill="none" stroke="black" d="M108.75,-180.29C94.69,-206.42 70.69,-257.9 70.69,-305 70.69,-667 70.69,-667 70.69,-667 70.69,-708.22 85.12,-754.17 95.71,-782.34"/>
<polygon fill="black" stroke="black" points="92.53,-783.81 99.41,-791.87 99.06,-781.28 92.53,-783.81"/>
</g>
<!-- 13 -->
<g id="node7" class="node">
<title>13</title>
<ellipse fill="none" stroke="black" cx="372.69" cy="-378" rx="75.29" ry="18"/>
<text text-anchor="middle" x="372.69" y="-374.3" font-family="Times New Roman,serif" font-size="14.00">no@gmail.com_1</text>
</g>
<!-- 28&#45;&gt;13 -->
<g id="edge8" class="edge">
<title>28&#45;&gt;13</title>
<path fill="none" stroke="black" d="M118.22,-180.15C118.56,-199.48 121.8,-230.93 137.69,-252 181.17,-309.66 259.14,-343.5 313.28,-361.12"/>
<polygon fill="black" stroke="black" points="312.51,-364.55 323.1,-364.22 314.62,-357.87 312.51,-364.55"/>
</g>
<!-- 17 -->
<g id="node13" class="node">
<title>17</title>
<ellipse fill="none" stroke="black" cx="353.69" cy="-90" rx="83.69" ry="18"/>
<text text-anchor="middle" x="353.69" y="-86.3" font-family="Times New Roman,serif" font-size="14.00">email@email.com_1</text>
</g>
<!-- 28&#45;&gt;17 -->
<g id="edge9" class="edge">
<title>28&#45;&gt;17</title>
<path fill="none" stroke="black" d="M167.38,-146.5C205.06,-135.27 257.31,-119.71 296.89,-107.92"/>
<polygon fill="black" stroke="black" points="298.08,-111.22 306.66,-105.01 296.08,-104.51 298.08,-111.22"/>
</g>
<!-- 14 -->
<g id="node8" class="node">
<title>14</title>
<ellipse fill="none" stroke="black" cx="362.69" cy="-306" rx="75.29" ry="18"/>
<text text-anchor="middle" x="362.69" y="-302.3" font-family="Times New Roman,serif" font-size="14.00">no@gmail.com_2</text>
</g>
<!-- 13&#45;&gt;14 -->
<g id="edge11" class="edge">
<title>13&#45;&gt;14</title>
<path fill="none" stroke="black" d="M370.22,-359.7C369.12,-351.98 367.79,-342.71 366.56,-334.11"/>
<polygon fill="black" stroke="black" points="370.01,-333.51 365.13,-324.1 363.08,-334.5 370.01,-333.51"/>
</g>
<!-- 14&#45;&gt;27 -->
<g id="edge15" class="edge">
<title>14&#45;&gt;27</title>
<path fill="none" stroke="black" d="M335.23,-289.12C318.61,-279.5 297.18,-267.1 279.03,-256.6"/>
<polygon fill="black" stroke="black" points="280.29,-253.29 269.88,-251.31 276.78,-259.34 280.29,-253.29"/>
</g>
<!-- 11 -->
<g id="node9" class="node">
<title>11</title>
<ellipse fill="none" stroke="black" cx="592.69" cy="-234" rx="98.58" ry="18"/>
<text text-anchor="middle" x="592.69" y="-230.3" font-family="Times New Roman,serif" font-size="14.00">incaunul@yahoo.com_1</text>
</g>
<!-- 14&#45;&gt;11 -->
<g id="edge12" class="edge">
<title>14&#45;&gt;11</title>
<path fill="none" stroke="black" d="M407.31,-291.42C443.56,-280.39 494.97,-264.74 534.46,-252.72"/>
<polygon fill="black" stroke="black" points="535.68,-256.01 544.22,-249.75 533.64,-249.31 535.68,-256.01"/>
</g>
<!-- 14&#45;&gt;17 -->
<g id="edge13" class="edge">
<title>14&#45;&gt;17</title>
<path fill="none" stroke="black" d="M361.97,-287.85C360.41,-250.83 356.73,-163.18 354.84,-118.39"/>
<polygon fill="black" stroke="black" points="358.33,-118.08 354.42,-108.23 351.34,-118.37 358.33,-118.08"/>
</g>
<!-- 19 -->
<g id="node15" class="node">
<title>19</title>
<ellipse fill="none" stroke="black" cx="259.69" cy="-522" rx="85.29" ry="18"/>
<text text-anchor="middle" x="259.69" y="-518.3" font-family="Times New Roman,serif" font-size="14.00">yess@yahoo.com_1</text>
</g>
<!-- 14&#45;&gt;19 -->
<g id="edge14" class="edge">
<title>14&#45;&gt;19</title>
<path fill="none" stroke="black" d="M330.81,-322.41C315.72,-331.32 298.82,-343.97 288.69,-360 262.53,-401.37 258.45,-460.01 258.58,-493.92"/>
<polygon fill="black" stroke="black" points="255.08,-494.06 258.74,-504 262.08,-493.94 255.08,-494.06"/>
</g>
<!-- 12 -->
<g id="node10" class="node">
<title>12</title>
<ellipse fill="none" stroke="black" cx="719.69" cy="-162" rx="98.58" ry="18"/>
<text text-anchor="middle" x="719.69" y="-158.3" font-family="Times New Roman,serif" font-size="14.00">incaunul@yahoo.com_2</text>
</g>
<!-- 11&#45;&gt;12 -->
<g id="edge16" class="edge">
<title>11&#45;&gt;12</title>
<path fill="none" stroke="black" d="M622.15,-216.76C639.65,-207.12 662.06,-194.77 680.98,-184.34"/>
<polygon fill="black" stroke="black" points="682.89,-187.28 689.96,-179.39 679.51,-181.15 682.89,-187.28"/>
</g>
<!-- 12&#45;&gt;13 -->
<g id="edge18" class="edge">
<title>12&#45;&gt;13</title>
<path fill="none" stroke="black" d="M720.62,-180.17C720.75,-199.81 717.96,-231.84 700.69,-252 637.5,-325.73 525.9,-356.11 450.63,-368.53"/>
<polygon fill="black" stroke="black" points="450.05,-365.08 440.72,-370.1 451.14,-371.99 450.05,-365.08"/>
</g>
<!-- 9 -->
<g id="node11" class="node">
<title>9</title>
<ellipse fill="none" stroke="black" cx="708.69" cy="-90" rx="77.99" ry="18"/>
<text text-anchor="middle" x="708.69" y="-86.3" font-family="Times New Roman,serif" font-size="14.00">haida@gmail.co_1</text>
</g>
<!-- 12&#45;&gt;9 -->
<g id="edge17" class="edge">
<title>12&#45;&gt;9</title>
<path fill="none" stroke="black" d="M716.97,-143.7C715.76,-135.98 714.3,-126.71 712.95,-118.11"/>
<polygon fill="black" stroke="black" points="716.39,-117.44 711.38,-108.1 709.47,-118.53 716.39,-117.44"/>
</g>
<!-- 10 -->
<g id="node12" class="node">
<title>10</title>
<ellipse fill="none" stroke="black" cx="650.69" cy="-18" rx="77.99" ry="18"/>
<text text-anchor="middle" x="650.69" y="-14.3" font-family="Times New Roman,serif" font-size="14.00">haida@gmail.co_2</text>
</g>
<!-- 9&#45;&gt;10 -->
<g id="edge19" class="edge">
<title>9&#45;&gt;10</title>
<path fill="none" stroke="black" d="M694.65,-72.05C687.6,-63.54 678.92,-53.07 671.14,-43.68"/>
<polygon fill="black" stroke="black" points="673.68,-41.26 664.6,-35.79 668.29,-45.72 673.68,-41.26"/>
</g>
<!-- 10&#45;&gt;11 -->
<g id="edge20" class="edge">
<title>10&#45;&gt;11</title>
<path fill="none" stroke="black" d="M639.54,-36.01C633.41,-46.09 626.16,-59.34 621.69,-72 605.72,-117.23 598.2,-172.87 594.93,-205.48"/>
<polygon fill="black" stroke="black" points="591.43,-205.33 593.98,-215.61 598.4,-205.98 591.43,-205.33"/>
</g>
<!-- 18 -->
<g id="node14" class="node">
<title>18</title>
<ellipse fill="none" stroke="black" cx="353.69" cy="-18" rx="83.69" ry="18"/>
<text text-anchor="middle" x="353.69" y="-14.3" font-family="Times New Roman,serif" font-size="14.00">email@email.com_2</text>
</g>
<!-- 17&#45;&gt;18 -->
<g id="edge21" class="edge">
<title>17&#45;&gt;18</title>
<path fill="none" stroke="black" d="M353.69,-71.7C353.69,-63.98 353.69,-54.71 353.69,-46.11"/>
<polygon fill="black" stroke="black" points="357.19,-46.1 353.69,-36.1 350.19,-46.1 357.19,-46.1"/>
</g>
<!-- 18&#45;&gt;27 -->
<g id="edge23" class="edge">
<title>18&#45;&gt;27</title>
<path fill="none" stroke="black" d="M310.39,-33.53C292.11,-41.9 272.39,-54.34 260.69,-72 233.9,-112.44 234.57,-171.4 237.87,-205.62"/>
<polygon fill="black" stroke="black" points="234.42,-206.25 239,-215.8 241.37,-205.47 234.42,-206.25"/>
</g>
<!-- 18&#45;&gt;13 -->
<g id="edge22" class="edge">
<title>18&#45;&gt;13</title>
<path fill="none" stroke="black" d="M395.77,-33.83C414.02,-42.3 434.07,-54.75 446.69,-72 470.57,-104.64 465.69,-120.55 465.69,-161 465.69,-235 465.69,-235 465.69,-235 465.69,-275.45 468.85,-290.16 446.69,-324 438.25,-336.89 425.5,-347.65 412.96,-356.03"/>
<polygon fill="black" stroke="black" points="410.95,-353.16 404.36,-361.45 414.69,-359.08 410.95,-353.16"/>
</g>
<!-- 20 -->
<g id="node16" class="node">
<title>20</title>
<ellipse fill="none" stroke="black" cx="372.69" cy="-450" rx="85.29" ry="18"/>
<text text-anchor="middle" x="372.69" y="-446.3" font-family="Times New Roman,serif" font-size="14.00">yess@yahoo.com_2</text>
</g>
<!-- 19&#45;&gt;20 -->
<g id="edge24" class="edge">
<title>19&#45;&gt;20</title>
<path fill="none" stroke="black" d="M285.9,-504.76C301.3,-495.22 320.97,-483.04 337.69,-472.68"/>
<polygon fill="black" stroke="black" points="339.97,-475.39 346.62,-467.15 336.28,-469.44 339.97,-475.39"/>
</g>
<!-- 20&#45;&gt;13 -->
<g id="edge25" class="edge">
<title>20&#45;&gt;13</title>
<path fill="none" stroke="black" d="M372.69,-431.7C372.69,-423.98 372.69,-414.71 372.69,-406.11"/>
<polygon fill="black" stroke="black" points="376.19,-406.1 372.69,-396.1 369.19,-406.1 376.19,-406.1"/>
</g>
<!-- 20&#45;&gt;33 -->
<g id="edge26" class="edge">
<title>20&#45;&gt;33</title>
<path fill="none" stroke="black" d="M374.97,-468.22C378.21,-499.67 380.76,-567.29 350.69,-612 340.8,-626.7 325.37,-637.84 309.95,-646.01"/>
<polygon fill="black" stroke="black" points="308.32,-642.91 300.91,-650.49 311.42,-649.19 308.32,-642.91"/>
</g>
<!-- 34 -->
<g id="node18" class="node">
<title>34</title>
<ellipse fill="none" stroke="black" cx="258.69" cy="-594" rx="82.59" ry="18"/>
<text text-anchor="middle" x="258.69" y="-590.3" font-family="Times New Roman,serif" font-size="14.00">000@yahoo.com_2</text>
</g>
<!-- 33&#45;&gt;34 -->
<g id="edge27" class="edge">
<title>33&#45;&gt;34</title>
<path fill="none" stroke="black" d="M258.69,-647.7C258.69,-639.98 258.69,-630.71 258.69,-622.11"/>
<polygon fill="black" stroke="black" points="262.19,-622.1 258.69,-612.1 255.19,-622.1 262.19,-622.1"/>
</g>
<!-- 34&#45;&gt;21 -->
<g id="edge29" class="edge">
<title>34&#45;&gt;21</title>
<path fill="none" stroke="black" d="M221.76,-610.2C203.47,-619.13 182.08,-631.86 166.69,-648 130.88,-685.57 116.03,-746.45 110.19,-781.59"/>
<polygon fill="black" stroke="black" points="106.71,-781.2 108.66,-791.62 113.63,-782.26 106.71,-781.2"/>
</g>
<!-- 34&#45;&gt;19 -->
<g id="edge28" class="edge">
<title>34&#45;&gt;19</title>
<path fill="none" stroke="black" d="M258.94,-575.7C259.05,-567.98 259.18,-558.71 259.3,-550.11"/>
<polygon fill="black" stroke="black" points="262.8,-550.15 259.45,-540.1 255.8,-550.05 262.8,-550.15"/>
</g>
<!-- 3 -->
<g id="node19" class="node">
<title>3</title>
<ellipse fill="none" stroke="black" cx="408.69" cy="-954" rx="90.98" ry="18"/>
<text text-anchor="middle" x="408.69" y="-950.3" font-family="Times New Roman,serif" font-size="14.00">ANYA@gmail.com_1</text>
</g>
<!-- 4 -->
<g id="node20" class="node">
<title>4</title>
<ellipse fill="none" stroke="black" cx="408.69" cy="-882" rx="90.98" ry="18"/>
<text text-anchor="middle" x="408.69" y="-878.3" font-family="Times New Roman,serif" font-size="14.00">ANYA@gmail.com_2</text>
</g>
<!-- 3&#45;&gt;4 -->
<g id="edge30" class="edge">
<title>3&#45;&gt;4</title>
<path fill="none" stroke="black" d="M408.69,-935.7C408.69,-927.98 408.69,-918.71 408.69,-910.11"/>
<polygon fill="black" stroke="black" points="412.19,-910.1 408.69,-900.1 405.19,-910.1 412.19,-910.1"/>
</g>
<!-- 5 -->
<g id="node21" class="node">
<title>5</title>
<ellipse fill="none" stroke="black" cx="596.69" cy="-954" rx="79.09" ry="18"/>
<text text-anchor="middle" x="596.69" y="-950.3" font-family="Times New Roman,serif" font-size="14.00">IQ@yahoo.com_1</text>
</g>
<!-- 6 -->
<g id="node22" class="node">
<title>6</title>
<ellipse fill="none" stroke="black" cx="596.69" cy="-882" rx="79.09" ry="18"/>
<text text-anchor="middle" x="596.69" y="-878.3" font-family="Times New Roman,serif" font-size="14.00">IQ@yahoo.com_2</text>
</g>
<!-- 5&#45;&gt;6 -->
<g id="edge31" class="edge">
<title>5&#45;&gt;6</title>
<path fill="none" stroke="black" d="M596.69,-935.7C596.69,-927.98 596.69,-918.71 596.69,-910.11"/>
<polygon fill="black" stroke="black" points="600.19,-910.1 596.69,-900.1 593.19,-910.1 600.19,-910.1"/>
</g>
<!-- 7 -->
<g id="node23" class="node">
<title>7</title>
<ellipse fill="none" stroke="black" cx="769.69" cy="-954" rx="75.29" ry="18"/>
<text text-anchor="middle" x="769.69" y="-950.3" font-family="Times New Roman,serif" font-size="14.00">IN@gmail.com_1</text>
</g>
<!-- 8 -->
<g id="node24" class="node">
<title>8</title>
<ellipse fill="none" stroke="black" cx="769.69" cy="-882" rx="75.29" ry="18"/>
<text text-anchor="middle" x="769.69" y="-878.3" font-family="Times New Roman,serif" font-size="14.00">IN@gmail.com_2</text>
</g>
<!-- 7&#45;&gt;8 -->
<g id="edge32" class="edge">
<title>7&#45;&gt;8</title>
<path fill="none" stroke="black" d="M769.69,-935.7C769.69,-927.98 769.69,-918.71 769.69,-910.11"/>
<polygon fill="black" stroke="black" points="773.19,-910.1 769.69,-900.1 766.19,-910.1 773.19,-910.1"/>
</g>
<!-- 15 -->
<g id="node25" class="node">
<title>15</title>
<ellipse fill="none" stroke="black" cx="953.69" cy="-954" rx="90.98" ry="18"/>
<text text-anchor="middle" x="953.69" y="-950.3" font-family="Times New Roman,serif" font-size="14.00">WHO@yahoo.com_1</text>
</g>
<!-- 16 -->
<g id="node26" class="node">
<title>16</title>
<ellipse fill="none" stroke="black" cx="953.69" cy="-882" rx="90.98" ry="18"/>
<text text-anchor="middle" x="953.69" y="-878.3" font-family="Times New Roman,serif" font-size="14.00">WHO@yahoo.com_2</text>
</g>
<!-- 15&#45;&gt;16 -->
<g id="edge33" class="edge">
<title>15&#45;&gt;16</title>
<path fill="none" stroke="black" d="M953.69,-935.7C953.69,-927.98 953.69,-918.71 953.69,-910.11"/>
<polygon fill="black" stroke="black" points="957.19,-910.1 953.69,-900.1 950.19,-910.1 957.19,-910.1"/>
</g>
<!-- 23 -->
<g id="node27" class="node">
<title>23</title>
<ellipse fill="none" stroke="black" cx="1162.69" cy="-954" rx="100.18" ry="18"/>
<text text-anchor="middle" x="1162.69" y="-950.3" font-family="Times New Roman,serif" font-size="14.00">BIANCA@gmail.com_1</text>
</g>
<!-- 24 -->
<g id="node28" class="node">
<title>24</title>
<ellipse fill="none" stroke="black" cx="1162.69" cy="-882" rx="100.18" ry="18"/>
<text text-anchor="middle" x="1162.69" y="-878.3" font-family="Times New Roman,serif" font-size="14.00">BIANCA@gmail.com_2</text>
</g>
<!-- 23&#45;&gt;24 -->
<g id="edge34" class="edge">
<title>23&#45;&gt;24</title>
<path fill="none" stroke="black" d="M1162.69,-935.7C1162.69,-927.98 1162.69,-918.71 1162.69,-910.11"/>
<polygon fill="black" stroke="black" points="1166.19,-910.1 1162.69,-900.1 1159.19,-910.1 1166.19,-910.1"/>
</g>
<!-- 25 -->
<g id="node29" class="node">
<title>25</title>
<ellipse fill="none" stroke="black" cx="1515.69" cy="-954" rx="96.68" ry="18"/>
<text text-anchor="middle" x="1515.69" y="-950.3" font-family="Times New Roman,serif" font-size="14.00">DENISA@yaho.com_1</text>
</g>
<!-- 26 -->
<g id="node30" class="node">
<title>26</title>
<ellipse fill="none" stroke="black" cx="1515.69" cy="-882" rx="96.68" ry="18"/>
<text text-anchor="middle" x="1515.69" y="-878.3" font-family="Times New Roman,serif" font-size="14.00">DENISA@yaho.com_2</text>
</g>
<!-- 25&#45;&gt;26 -->
<g id="edge35" class="edge">
<title>25&#45;&gt;26</title>
<path fill="none" stroke="black" d="M1515.69,-935.7C1515.69,-927.98 1515.69,-918.71 1515.69,-910.11"/>
<polygon fill="black" stroke="black" points="1519.19,-910.1 1515.69,-900.1 1512.19,-910.1 1519.19,-910.1"/>
</g>
<!-- 31 -->
<g id="node31" class="node">
<title>31</title>
<ellipse fill="none" stroke="black" cx="1401.69" cy="-810" rx="83.39" ry="18"/>
<text text-anchor="middle" x="1401.69" y="-806.3" font-family="Times New Roman,serif" font-size="14.00">e444@gmail.com_1</text>
</g>
<!-- 26&#45;&gt;31 -->
<g id="edge36" class="edge">
<title>26&#45;&gt;31</title>
<path fill="none" stroke="black" d="M1488.96,-864.59C1473.53,-855.11 1453.92,-843.07 1437.2,-832.8"/>
<polygon fill="black" stroke="black" points="1438.6,-829.56 1428.25,-827.31 1434.94,-835.52 1438.6,-829.56"/>
</g>
<!-- 35 -->
<g id="node33" class="node">
<title>35</title>
<ellipse fill="none" stroke="black" cx="1615.69" cy="-810" rx="112.38" ry="18"/>
<text text-anchor="middle" x="1615.69" y="-806.3" font-family="Times New Roman,serif" font-size="14.00">ROMANIA@yahoo.com_1</text>
</g>
<!-- 26&#45;&gt;35 -->
<g id="edge37" class="edge">
<title>26&#45;&gt;35</title>
<path fill="none" stroke="black" d="M1539.39,-864.41C1552.49,-855.24 1568.97,-843.7 1583.25,-833.71"/>
<polygon fill="black" stroke="black" points="1585.63,-836.31 1591.82,-827.71 1581.62,-830.58 1585.63,-836.31"/>
</g>
<!-- 32 -->
<g id="node32" class="node">
<title>32</title>
<ellipse fill="none" stroke="black" cx="1346.69" cy="-738" rx="83.39" ry="18"/>
<text text-anchor="middle" x="1346.69" y="-734.3" font-family="Times New Roman,serif" font-size="14.00">e444@gmail.com_2</text>
</g>
<!-- 31&#45;&gt;32 -->
<g id="edge38" class="edge">
<title>31&#45;&gt;32</title>
<path fill="none" stroke="black" d="M1388.38,-792.05C1381.69,-783.54 1373.46,-773.07 1366.08,-763.68"/>
<polygon fill="black" stroke="black" points="1368.81,-761.49 1359.88,-755.79 1363.31,-765.81 1368.81,-761.49"/>
</g>
<!-- 32&#45;&gt;25 -->
<g id="edge39" class="edge">
<title>32&#45;&gt;25</title>
<path fill="none" stroke="black" d="M1330.94,-755.76C1315.88,-773.92 1297.18,-803.58 1309.69,-828 1338.39,-884.02 1404.52,-917.37 1454.16,-935.35"/>
<polygon fill="black" stroke="black" points="1453.26,-938.74 1463.86,-938.74 1455.57,-932.13 1453.26,-938.74"/>
</g>
<!-- 36 -->
<g id="node34" class="node">
<title>36</title>
<ellipse fill="none" stroke="black" cx="1685.69" cy="-738" rx="112.38" ry="18"/>
<text text-anchor="middle" x="1685.69" y="-734.3" font-family="Times New Roman,serif" font-size="14.00">ROMANIA@yahoo.com_2</text>
</g>
<!-- 35&#45;&gt;36 -->
<g id="edge40" class="edge">
<title>35&#45;&gt;36</title>
<path fill="none" stroke="black" d="M1632.64,-792.05C1641.19,-783.5 1651.73,-772.96 1661.16,-763.54"/>
<polygon fill="black" stroke="black" points="1663.82,-765.82 1668.42,-756.28 1658.87,-760.87 1663.82,-765.82"/>
</g>
<!-- 36&#45;&gt;25 -->
<g id="edge41" class="edge">
<title>36&#45;&gt;25</title>
<path fill="none" stroke="black" d="M1708.46,-755.72C1719.21,-765.04 1730.92,-777.67 1736.69,-792 1742.67,-806.84 1744.44,-814 1736.69,-828 1704.68,-885.81 1634.37,-918.78 1581.59,-936.18"/>
<polygon fill="black" stroke="black" points="1580.42,-932.88 1571.96,-939.25 1582.55,-939.55 1580.42,-932.88"/>
</g>
<!-- 29 -->
<g id="node35" class="node">
<title>29</title>
<ellipse fill="none" stroke="black" cx="1871.69" cy="-954" rx="88.28" ry="18"/>
<text text-anchor="middle" x="1871.69" y="-950.3" font-family="Times New Roman,serif" font-size="14.00">VVV@yahoo.com_1</text>
</g>
<!-- 30 -->
<g id="node36" class="node">
<title>30</title>
<ellipse fill="none" stroke="black" cx="1871.69" cy="-882" rx="88.28" ry="18"/>
<text text-anchor="middle" x="1871.69" y="-878.3" font-family="Times New Roman,serif" font-size="14.00">VVV@yahoo.com_2</text>
</g>
<!-- 29&#45;&gt;30 -->
<g id="edge42" class="edge">
<title>29&#45;&gt;30</title>
<path fill="none" stroke="black" d="M1871.69,-935.7C1871.69,-927.98 1871.69,-918.71 1871.69,-910.11"/>
<polygon fill="black" stroke="black" points="1875.19,-910.1 1871.69,-900.1 1868.19,-910.1 1875.19,-910.1"/>
</g>
</g>
</svg>
